<svg width="476" height="117" viewBox="0 0 476 117" fill="none" xmlns="http://www.w3.org/2000/svg">
<path d="M80.6002 10.0253H41.5376L26.0176 49.8434H66.0056L80.6002 10.0253Z" fill="#2F2E2E"/>
<path d="M0 116.596H41.5373L57.3573 73.4364L4.91867 103.978L0 116.596Z" fill="#2F2E2E"/>
<path d="M62.6217 70.3695L52.1217 98.4467L108.006 75.0227L83.6604 14.1243L70.299 49.8432H97.8657L62.6217 70.3695Z" fill="#F5AB0D"/>
<path d="M19.2468 53.8551L0.808105 101.767L83.0708 53.8551H19.2468Z" fill="#2F2E2E"/>
<path d="M75.5867 92.9802L109.08 79.077L123.051 116.597H85.0787L75.5867 92.9802Z" fill="#2F2E2E"/>
<path d="M143.399 36.8894H149.524C156.288 36.8894 158.97 31.3537 158.842 25.9142C158.714 20.7125 155.991 15.5108 149.524 15.5108H143.399V36.8894ZM164.415 25.9623C164.542 34.4081 159.948 42.9502 149.524 42.9502H137.826V9.54622H149.524C159.735 9.54622 164.287 17.7061 164.415 25.9623" fill="#2F2E2E"/>
<path d="M168.627 9.54661H174.201V42.9506H168.627V9.54661Z" fill="#2F2E2E"/>
<path d="M198.704 17.6107C197.683 15.7013 194.875 13.8882 191.643 13.8882C187.474 13.8882 185.474 15.8457 185.474 18.3269C185.474 21.2371 188.538 22.0495 192.111 22.5265C198.322 23.3856 204.107 25.1988 204.107 33.1677C204.107 40.6114 198.236 43.8088 191.6 43.8088C185.516 43.8088 180.838 41.7097 178.624 35.6008L183.304 32.8804C184.623 36.5548 188.068 38.1783 191.686 38.1783C195.216 38.1783 198.535 36.794 198.535 33.1677C198.535 30.0183 195.599 28.7289 191.643 28.2519C185.559 27.4409 179.944 25.6277 179.944 18.1359C179.944 11.264 185.984 8.4487 191.472 8.40058C196.11 8.40058 200.916 9.8797 203.171 15.0333L198.704 17.6107Z" fill="#2F2E2E"/>
<path d="M230.656 42.9498H208.364V9.54581H230.656V15.6548H213.937V23.3363H230.06V29.2061H213.937V36.746H230.656V42.9498Z" fill="#2F2E2E"/>
<path d="M242.016 4.24943C243.038 1.43415 244.696 -0.570095 247.504 0.146098C249.504 0.66984 251.46 3.15246 252.779 0.192837L256.183 2.00737C254.95 5.68181 252.822 6.77879 250.823 6.20556C248.739 5.53748 246.908 2.72219 245.25 6.20556L242.016 4.24943ZM255.46 9.49785H261.075V42.95H257.587V42.9967L241.932 20.4263V42.95H236.316V9.54596H240.868L255.46 30.2564V9.49785Z" fill="#2F2E2E"/>
<path d="M272.01 26.5821C272.138 32.0697 274.776 37.9395 281.794 37.9395C288.814 37.9395 291.452 32.023 291.537 26.534C291.621 20.9034 288.814 14.6048 281.794 14.6048C274.776 14.6048 271.882 20.9516 272.01 26.5821ZM297.066 26.4392C296.982 35.0761 292.261 43.713 281.794 43.713C271.329 43.713 266.48 35.2672 266.48 26.4873C266.48 17.706 271.5 8.87801 281.794 8.87801C292.048 8.87801 297.152 17.706 297.066 26.4392" fill="#2F2E2E"/>
<path d="M315.618 32.8332C315.618 36.3647 318.723 37.7489 321.828 37.7489C323.828 37.7489 328.039 36.5557 328.039 33.1672V28.3477H321.574C317.447 28.3477 315.618 30.829 315.618 32.8332ZM333.358 33.2153C333.358 35.1715 334.123 36.8417 336.038 36.8417V43.0922C333.826 43.0922 331.358 42.5204 330.423 38.7029C328.466 42.2825 325.062 43.3795 321.914 43.3795C315.404 43.3795 310.13 41.0412 310.087 32.7851C310.087 29.9698 311.916 26.8686 314.682 25.8184C312.002 24.8643 310.683 21.6669 310.683 19.0427C310.726 11.9316 316.724 9.0215 322.042 9.0215C327.231 9.0215 332.89 11.2649 332.932 18.4695H327.615C327.615 15.4164 324.934 14.3661 321.914 14.3661C317.532 14.3661 316.086 17.0852 316.128 19.0427C316.128 22.4312 319.871 23.3852 321.871 23.3852H335.824V28.3477H333.358V33.2153Z" fill="#2F2E2E"/>
<path d="M151.567 62.2922L146.036 76.513H157.096L151.567 62.2922ZM159.352 82.3827H143.782L141.23 88.6814H135.146L148.504 55.2774H154.63L167.987 88.6814H161.862L159.352 82.3827Z" fill="#2F2E2E"/>
<path d="M176.158 61.1471V71.8364H184.709C188.282 71.8364 189.814 69.1641 189.814 66.4918C189.814 63.8195 188.24 61.1471 184.709 61.1471H176.158ZM196.918 88.6814H190.24L181.561 77.5151H176.158V88.6814H170.542V55.2293C175.265 55.2293 179.988 55.2774 184.709 55.2774C191.728 55.3255 195.429 60.5739 195.429 66.3488C195.429 70.9292 193.557 75.5576 187.9 76.847L196.918 88.2511V88.6814Z" fill="#2F2E2E"/>
<path d="M203.344 72.0745C203.429 77.5621 206.662 83.4319 213.128 83.4319C219.85 83.4319 223.084 77.0851 222.87 71.3583C222.657 65.967 220.148 60.1453 213.128 60.1453C206.109 60.1453 203.26 66.444 203.344 72.0745ZM228.401 71.5494C228.444 75.3682 227.55 79.3286 225.636 82.4298L229.166 86.342L225.21 90.7808L221.594 86.7723C219.34 88.3944 216.489 89.2535 213.128 89.2535C202.536 89.2535 197.856 80.6166 197.814 71.9316C197.77 63.1984 202.664 54.4666 213.128 54.4666C223.594 54.4666 228.273 62.9606 228.401 71.5494" fill="#2F2E2E"/>
<path d="M258.608 55.325V74.4601C258.608 84.3384 253.205 89.3971 245.719 89.3971C238.571 89.3971 232.488 84.5294 232.488 74.4601V55.325H238.06V74.4601C238.06 80.4728 241.124 83.6703 245.76 83.6703C250.397 83.6703 253.035 80.1869 253.035 74.4601V55.325H258.608Z" fill="#2F2E2E"/>
<path d="M264.141 55.2771H269.714V88.6812H264.141V55.2771Z" fill="#2F2E2E"/>
<path d="M284.051 61.0042H274.607V55.2774H299.111V61.0042H289.665V88.6814H284.051V61.0042Z" fill="#2F2E2E"/>
<path d="M324.722 88.681H302.43V55.277H324.722V61.3859H308.003V69.0674H324.126V74.9372H308.003V82.4772H324.722V88.681Z" fill="#2F2E2E"/>
<path d="M355.312 84.482C352.249 87.8691 348.292 89.4444 343.996 89.4444C332.934 89.4444 328.256 80.9024 328.213 72.2187C328.17 63.4855 333.233 54.6094 343.996 54.6094C348.037 54.6094 351.866 56.3277 354.929 59.7149L351.185 63.7715C349.229 61.6243 346.59 60.6221 343.996 60.6221C336.806 60.6221 333.701 66.6349 333.744 72.2187C333.785 77.753 336.636 83.5279 343.996 83.5279C346.59 83.5279 349.526 82.3348 351.482 80.1394L355.312 84.482Z" fill="#2F2E2E"/>
<path d="M365.736 61.0042H356.292V55.2774H380.796V61.0042H371.351V88.6814H365.736V61.0042Z" fill="#2F2E2E"/>
<path d="M411.215 55.325V74.4601C411.215 84.3384 405.812 89.3971 398.326 89.3971C391.178 89.3971 385.095 84.5294 385.095 74.4601V55.325H390.667V74.4601C390.667 80.4728 393.731 83.6703 398.367 83.6703C403.004 83.6703 405.642 80.1869 405.642 74.4601V55.325H411.215Z" fill="#2F2E2E"/>
<path d="M422.363 61.1471V71.8364H430.914C434.487 71.8364 436.018 69.1641 436.018 66.4918C436.018 63.8195 434.446 61.1471 430.914 61.1471H422.363ZM443.123 88.6814H436.445L427.766 77.5151H422.363V88.6814H416.747V55.2293C421.47 55.2293 426.191 55.2774 430.914 55.2774C437.934 55.3255 441.634 60.5739 441.634 66.3488C441.634 70.9292 439.763 75.5576 434.105 76.847L443.123 88.2511V88.6814Z" fill="#2F2E2E"/>
<path d="M458.781 62.2922L453.252 76.513H464.311L458.781 62.2922ZM466.567 82.3827H450.996L448.444 88.6814H442.361L455.719 55.2774H461.844L475.201 88.6814H469.076L466.567 82.3827Z" fill="#2F2E2E"/>
<path d="M137.167 116.517V99.8316H147.871V102.863H139.975V107.422H147.446V110.335H139.975V116.517H137.167Z" fill="#2F2E2E"/>
<path d="M155.379 94.8904H152.315L150.74 98.1374V98.2803H153.038L155.379 95.01V94.8904ZM150.591 99.8076H153.379V116.516H150.591V99.8076Z" fill="#2F2E2E"/>
<path d="M166.187 103.842C165.676 102.888 164.271 101.981 162.655 101.981C160.568 101.981 159.568 102.958 159.568 104.201C159.568 105.655 161.1 106.062 162.888 106.3C165.995 106.73 168.89 107.637 168.89 111.624C168.89 115.348 165.952 116.946 162.632 116.946C159.59 116.946 157.248 115.898 156.142 112.842L158.483 111.481C159.143 113.319 160.867 114.13 162.675 114.13C164.442 114.13 166.102 113.437 166.102 111.624C166.102 110.048 164.632 109.404 162.655 109.164C159.611 108.759 156.802 107.852 156.802 104.104C156.802 100.666 159.824 99.2588 162.57 99.2354C164.888 99.2354 167.294 99.9749 168.422 102.554L166.187 103.842Z" fill="#2F2E2E"/>
<path d="M171.629 99.8076H174.417V116.516H171.629V99.8076Z" fill="#2F2E2E"/>
<path d="M190.737 114.416C189.205 116.111 187.225 116.899 185.076 116.899C179.542 116.899 177.202 112.626 177.181 108.281C177.16 103.912 179.692 99.4736 185.076 99.4736C187.098 99.4736 189.013 100.334 190.545 102.028L188.673 104.057C187.694 102.983 186.374 102.481 185.076 102.481C181.48 102.481 179.926 105.489 179.948 108.281C179.969 111.051 181.394 113.939 185.076 113.939C186.374 113.939 187.842 113.342 188.821 112.244L190.737 114.416Z" fill="#2F2E2E"/>
<path d="M198.882 103.317L196.115 110.431H201.649L198.882 103.317ZM202.775 113.367H194.987L193.711 116.518H190.667L197.35 99.8074H200.414L207.097 116.518H204.031L202.775 113.367Z" fill="#2F2E2E"/>
<path d="M216.132 113.486H219.196C222.58 113.486 223.92 110.716 223.856 107.996C223.793 105.393 222.431 102.792 219.196 102.792H216.132V113.486ZM226.644 108.019C226.708 112.245 224.409 116.517 219.196 116.517H213.344V99.8081H219.196C224.304 99.8081 226.58 103.889 226.644 108.019" fill="#2F2E2E"/>
<path d="M240.152 116.517H229V99.8082H240.152V102.863H231.788V106.706H239.853V109.642H231.788V113.413H240.152V116.517Z" fill="#2F2E2E"/>
<path d="M245.679 99.8078V113.605H253.34V116.517H242.871V99.8078H245.679Z" fill="#2F2E2E"/>
<path d="M269.911 103.842C269.4 102.888 267.995 101.981 266.379 101.981C264.292 101.981 263.292 102.958 263.292 104.201C263.292 105.655 264.824 106.062 266.612 106.3C269.719 106.73 272.613 107.637 272.613 111.624C272.613 115.348 269.676 116.946 266.356 116.946C263.313 116.946 260.972 115.898 259.865 112.842L262.207 111.481C262.867 113.319 264.591 114.13 266.399 114.13C268.165 114.13 269.825 113.437 269.825 111.624C269.825 110.048 268.356 109.404 266.379 109.164C263.335 108.759 260.525 107.852 260.525 104.104C260.525 100.666 263.548 99.2588 266.293 99.2354C268.612 99.2354 271.017 99.9749 272.145 102.554L269.911 103.842Z" fill="#2F2E2E"/>
<path d="M288.398 99.832V109.404C288.398 114.346 285.696 116.875 281.95 116.875C278.374 116.875 275.332 114.44 275.332 109.404V99.832H278.12V109.404C278.12 112.411 279.652 114.01 281.972 114.01C284.29 114.01 285.61 112.268 285.61 109.404V99.832H288.398Z" fill="#2F2E2E"/>
<path d="M294.52 102.744V108.091H298.798C300.586 108.091 301.352 106.753 301.352 105.416C301.352 104.081 300.564 102.744 298.798 102.744H294.52ZM304.906 116.518H301.564L297.223 110.931H294.52V116.518H291.711V99.784C294.074 99.784 296.436 99.8074 298.798 99.8074C302.31 99.8321 304.16 102.458 304.16 105.347C304.16 107.637 303.224 109.952 300.394 110.597L304.906 116.302V116.518Z" fill="#2F2E2E"/>
<path d="M317.711 116.517H306.559V99.8082H317.711V102.863H309.347V106.706H317.412V109.642H309.347V113.413H317.711V116.517Z" fill="#2F2E2E"/>
<path d="M330.069 103.842C329.558 102.888 328.153 101.981 326.537 101.981C324.45 101.981 323.45 102.958 323.45 104.201C323.45 105.655 324.982 106.062 326.77 106.3C329.877 106.73 332.772 107.637 332.772 111.624C332.772 115.348 329.834 116.946 326.514 116.946C323.472 116.946 321.13 115.898 320.024 112.842L322.365 111.481C323.025 113.319 324.749 114.13 326.557 114.13C328.324 114.13 329.984 113.437 329.984 111.624C329.984 110.048 328.516 109.404 326.537 109.164C323.493 108.759 320.684 107.852 320.684 104.104C320.684 100.666 323.706 99.2588 326.452 99.2354C328.77 99.2354 331.176 99.9749 332.304 102.554L330.069 103.842Z" fill="#2F2E2E"/>
<path d="M339.342 102.673H334.618V99.8078H346.875V102.673H342.151V116.517H339.342V102.673Z" fill="#2F2E2E"/>
<path d="M360.234 116.517H349.082V99.8082H360.234V102.863H351.87V106.706H359.936V109.642H351.87V113.413H360.234V116.517Z" fill="#2F2E2E"/>
</svg>
